<?xml version="1.0" encoding="UTF-8"?>
<svg id="Layer_1" xmlns="http://www.w3.org/2000/svg" xmlns:xlink="http://www.w3.org/1999/xlink" version="1.1" viewBox="0 0 230.03165 250">
  <!-- Generator: Adobe Illustrator 29.1.0, SVG Export Plug-In . SVG Version: 2.1.0 Build 142)  -->
  <defs>
    <style>
      .st0 {
        fill: url(#linear-gradient);
      }
    </style>
    <linearGradient id="linear-gradient" x1="115.0158" y1="-35.61732" x2="115.0158" y2="278.40285" gradientUnits="userSpaceOnUse">
      <stop offset=".45079" stop-color="#27aae1"/>
      <stop offset="1" stop-color="#2b3990"/>
    </linearGradient>
  </defs>
  <path class="st0" d="M208.78695,0h-70.65997v12.99725h70.65997c4.54822,0,8.24744,3.69995,8.24744,8.24744v148.19794c0,2.84314-1.43427,5.44934-3.8374,6.96967l-93.77045,59.32965c-2.67889,1.69373-6.14117,1.69659-8.82001,0l-93.77045-59.32965c-2.40387-1.52032-3.83881-4.12653-3.83881-6.96967v-47.99799h15.88556v32.09406c0,7.32648,3.69568,14.03809,9.88544,17.95306l21.08179,13.33856,6.94995-10.9834-21.08252-13.33856c-2.40314-1.52026-3.8374-4.12506-3.8374-6.96967V50.1275c0-4.54749,3.69989-8.2467,8.24738-8.2467h43.02173v-12.99725h-43.02173c-11.7146,0-21.24463,9.53003-21.24463,21.24396v58.31989h-15.88556V21.24469c0-4.54749,3.69989-8.24744,8.24738-8.24744h87.27252v28.88354h.00073v28.88281h42.50482c4.54822,0,8.24744,3.69922,8.24744,8.2467v21.39185h-12.24371v-11.5531c0-3.33679-2.70502-6.04181-6.04181-6.04181h-51.93768c-3.33679,0-6.04181,2.70502-6.04181,6.04181v42.59625c0,2.02277,1.01227,3.91138,2.69672,5.03125l25.96881,17.26569c2.02655,1.34735,4.66364,1.34735,6.69019,0l25.96887-17.26569c1.68445-1.11987,2.69672-3.00848,2.69672-5.03125v-18.0459h12.24371v24.23401c0,2.84454-1.43427,5.4494-3.83881,6.96967l-36.00549,22.78326c-2.67889,1.69379-6.14117,1.69659-8.82001,0l-36.00549-22.78186c-2.40314-1.52032-3.8374-4.12512-3.8374-6.96967v-58.62451c0-4.54749,3.69989-8.2467,8.24738-8.2467h14.13892v-12.99725h-14.13892c-11.7146,0-21.24469,9.53003-21.24469,21.24396v58.62451c0,7.32648,3.69568,14.03809,9.8855,17.953l19.46277,12.31482-15.19873,24.56158,31.74146,20.08398c3.44958,2.18311,7.40405,3.27472,11.35852,3.27472s7.90894-1.09161,11.35992-3.27472l64.88763-41.05652c6.19116-3.91498,9.88757-10.62793,9.88757-17.95441v-53.13513h-28.88281v-21.39191c0-11.71387-9.53082-21.24396-21.24469-21.24396h-29.50757v-15.8855h58.39038c4.54822,0,8.24738,3.69916,8.24738,8.24664v33.82855h12.99731v-33.82855c0-11.71387-9.53082-21.24396-21.24469-21.24396h-58.39111V0H21.24465C9.53005,0-.00004,9.53003-.00004,21.24469v148.19794C-.00004,176.76624,3.69564,183.47784,9.8854,187.39563l93.77191,59.32965c3.45026,2.18317,7.40332,3.27472,11.35846,3.27472,3.9538-.0014,7.90967-1.09155,11.35992-3.27472l93.77118-59.32965c6.18976-3.91779,9.88477-10.62939,9.88477-17.953V21.24469c0-11.7146-9.53082-21.24469-21.24469-21.24469ZM125.96627,134.46198h-21.901l5.13342-15.21704c-4.62988-2.18616-7.84119-6.88397-7.84119-12.34375,0-7.54327,6.11499-13.65833,13.65826-13.65833s13.65833,6.11505,13.65833,13.65833c0,5.45978-3.21143,10.15759-7.84131,12.34381l5.13348,15.21698ZM172.26742,137.63342v-24.23395s15.8855,0,15.8855-.00006v40.13788c0,2.84454-1.43427,5.4494-3.83881,6.96967l-64.88831,41.05786c-2.67889,1.69519-6.14117,1.69519-8.82001,0l-20.86743-13.20453,8.35956-13.50775,5.55865,3.51721c3.44958,2.18317,7.40405,3.27472,11.35852,3.27472s7.90894-1.09155,11.35992-3.27472l36.00482-22.78186c6.19116-3.91498,9.88757-10.62799,9.88757-17.95447Z"/>
</svg>