<?xml version="1.0" encoding="utf-8"?>
<!-- Generator: Adobe Illustrator 27.9.0, SVG Export Plug-In . SVG Version: 6.00 Build 0)  -->
<svg version="1.1" id="Layer_1" xmlns="http://www.w3.org/2000/svg" xmlns:xlink="http://www.w3.org/1999/xlink" x="0px" y="0px"
	 viewBox="0 0 219.34 250" style="enable-background:new 0 0 219.34 250;" xml:space="preserve">
<style type="text/css">
	.st0{fill:url(#Path-1_00000170980771617616159920000005367805040458324368_);}
</style>
<linearGradient id="Path-1_00000057862624879179389460000009494156005686038700_" gradientUnits="userSpaceOnUse" x1="22.8211" y1="52.7396" x2="175.938" y2="185.5055">
	<stop  offset="0" style="stop-color:#00AEEF"/>
	<stop  offset="1" style="stop-color:#00E9E7"/>
</linearGradient>
<path id="Path-1" style="fill:url(#Path-1_00000057862624879179389460000009494156005686038700_);" d="M203.89,110.46
	c3.19-5.06,4.86-10.84,4.86-16.9c0-11.97-6.61-22.77-17.07-28.26c0.27-1.67,0.41-3.32,0.41-4.94c0-16.48-12.56-30.09-28.6-31.75
	C161.81,12.56,148.21,0,131.72,0c-8.3,0-16.14,3.19-22.06,8.85C103.76,3.19,95.91,0,87.61,0C71.13,0,57.53,12.56,55.86,28.6
	c-16.05,1.67-28.6,15.27-28.6,31.75c0,1.62,0.14,3.28,0.41,4.94C17.2,70.78,10.59,81.58,10.59,93.56c0,6.06,1.67,11.84,4.85,16.9
	C5.71,118.37,0,130.25,0,142.9c0,14.5,7.53,27.93,19.79,35.54c0.39,10.42,5.84,19.98,14.57,25.63c-0.03,0.56-0.05,1.1-0.05,1.62
	c0,16.02,12.09,29.61,27.83,31.63C68.16,245.29,77.57,250,87.61,250c8.3,0,16.14-3.19,22.06-8.85c5.91,5.67,13.76,8.85,22.06,8.85
	c10.04,0,19.45-4.71,25.47-12.68c15.74-2.03,27.83-15.61,27.83-31.63c0-0.52-0.02-1.06-0.05-1.62c8.73-5.65,14.19-15.2,14.57-25.62
	c12.26-7.61,19.79-21.03,19.79-35.54C219.34,130.25,213.62,118.37,203.89,110.46z M201.77,93.56c0,5.13-1.55,9.99-4.46,14.17h-13.65
	c-1.16-3.58-4-6.41-7.59-7.54V78.7l12.19-7.3C196.53,75.66,201.77,84.14,201.77,93.56z M172.58,106.64c2.58,0,4.67,2.1,4.67,4.67
	c0,2.58-2.1,4.67-4.67,4.67c-2.58,0-4.67-2.1-4.67-4.67C167.91,108.73,170,106.64,172.58,106.64z M31.42,71.23l12.47,7.47v21.49
	c-3.59,1.13-6.43,3.96-7.59,7.54H22.03c-2.91-4.18-4.46-9.04-4.46-14.17C17.57,84.01,22.95,75.43,31.42,71.23z M47.38,106.64
	c2.58,0,4.67,2.1,4.67,4.67c0,2.58-2.1,4.67-4.67,4.67c-2.58,0-4.67-2.1-4.67-4.67C42.71,108.73,44.8,106.64,47.38,106.64z
	 M26.75,177.42l21.51-38.52h26.82c1.49,4.72,5.91,8.16,11.12,8.16c6.42,0,11.65-5.23,11.65-11.65c0-6.43-5.23-11.65-11.65-11.65
	c-5.21,0-9.63,3.44-11.12,8.16H46.21c-1.26,0-2.43,0.68-3.05,1.79l-21.13,37.83c-9.36-6.47-15.05-17.14-15.05-28.64
	c0-11.18,5.37-21.64,14.41-28.19h14.85c1.46,4.77,5.9,8.25,11.14,8.25c6.42,0,11.65-5.23,11.65-11.65c0-5.21-3.44-9.63-8.16-11.12
	V76.72c0-1.23-0.64-2.36-1.7-2.99l-14.41-8.63c-0.32-1.61-0.53-3.2-0.53-4.74c0-13.34,10.53-24.23,23.72-24.88L75.4,50.53
	c-0.55,1.35-0.86,2.83-0.86,4.38c0,6.42,5.23,11.65,11.65,11.65c6.42,0,11.65-5.23,11.65-11.65c0-6.43-5.23-11.65-11.65-11.65
	c-2.34,0-4.52,0.7-6.35,1.89l-17.1-14.76c0.8-13.04,11.63-23.41,24.86-23.41c7.14,0,13.83,3.05,18.57,8.36v73.15H84.95
	c-1.49-4.72-5.91-8.16-11.12-8.16c-6.42,0-11.65,5.23-11.65,11.65c0,6.43,5.23,11.65,11.65,11.65c5.21,0,9.63-3.44,11.12-8.16h21.23
	v73.77H66.66c-1.49-4.72-5.91-8.16-11.12-8.16c-6.42,0-11.65,5.23-11.65,11.65c0,2.3,0.68,4.45,1.84,6.25l-9.07,18.16
	C30.51,192.5,26.8,185.24,26.75,177.42z M81.52,135.41c0-2.58,2.1-4.67,4.67-4.67c2.58,0,4.67,2.1,4.67,4.67
	c0,2.58-2.1,4.67-4.67,4.67C83.62,140.08,81.52,137.99,81.52,135.41z M86.2,50.24c2.58,0,4.67,2.1,4.67,4.67
	c0,2.58-2.1,4.67-4.67,4.67c-2.58,0-4.67-2.1-4.67-4.67C81.52,52.33,83.62,50.24,86.2,50.24z M78.5,91.98c0,2.58-2.1,4.67-4.67,4.67
	c-2.58,0-4.67-2.1-4.67-4.67c0-2.58,2.1-4.67,4.67-4.67C76.41,87.31,78.5,89.4,78.5,91.98z M50.87,172.73c0-2.58,2.1-4.67,4.67-4.67
	c2.58,0,4.67,2.1,4.67,4.67c0,2.58-2.1,4.67-4.67,4.67C52.97,177.4,50.87,175.3,50.87,172.73z M87.61,243.02
	c-7.51,0-14.53-3.39-19.25-9.14L79.82,217c1.45,0.64,3.04,1.01,4.72,1.01c6.43,0,11.65-5.23,11.65-11.65
	c0-6.43-5.23-11.65-11.65-11.65c-6.42,0-11.65,5.23-11.65,11.65c0,2.18,0.61,4.22,1.66,5.97l-12.19,17.95
	c-11.97-1.87-21.08-12.31-21.08-24.6c0-0.76,0.06-1.59,0.16-2.51l9.8-19.63c1.33,0.53,2.78,0.83,4.29,0.83
	c5.21,0,9.63-3.44,11.12-8.16h39.52v58.45C101.44,239.97,94.75,243.02,87.61,243.02z M79.87,206.36c0-2.58,2.1-4.67,4.67-4.67
	c2.58,0,4.67,2.1,4.67,4.67s-2.1,4.67-4.67,4.67C81.97,211.03,79.87,208.93,79.87,206.36z M157.53,230.2l-12.13-17.87
	c1.05-1.75,1.67-3.79,1.67-5.97c0-6.43-5.23-11.65-11.65-11.65c-6.43,0-11.65,5.23-11.65,11.65c0,6.42,5.23,11.65,11.65,11.65
	c1.68,0,3.28-0.37,4.72-1.01l11.17,16.45c-4.72,6-11.89,9.57-19.58,9.57c-7.14,0-13.83-3.05-18.57-8.35v-58.45h40.14
	c1.49,4.72,5.91,8.16,11.11,8.16c1.52,0,2.96-0.3,4.29-0.83l9.15,18.31c-0.02,0.25-0.05,0.5-0.02,0.76
	c0.14,1.16,0.21,2.14,0.21,3.06C178.05,217.78,169.22,228.09,157.53,230.2z M135.41,211.03c-2.58,0-4.67-2.09-4.67-4.67
	s2.1-4.67,4.67-4.67c2.58,0,4.67,2.1,4.67,4.67S137.99,211.03,135.41,211.03z M164.42,177.4c-2.58,0-4.67-2.1-4.67-4.67
	c0-2.58,2.09-4.67,4.67-4.67s4.67,2.1,4.67,4.67C169.09,175.3,166.99,177.4,164.42,177.4z M197.75,171.23l-20.96-37.52
	c-0.62-1.1-1.78-1.79-3.05-1.79h-28.87c-1.49-4.72-5.91-8.16-11.11-8.16c-6.43,0-11.65,5.23-11.65,11.65
	c0,6.43,5.23,11.65,11.65,11.65c5.21,0,9.63-3.44,11.11-8.16h26.82l20.88,37.4c0,0.08-0.03,0.16-0.03,0.24
	c0,0.17,0.01,0.34,0.03,0.5l0.01,0.21c0,7.69-3.55,14.85-9.47,19.54l-8.9-17.81c1.16-1.81,1.84-3.95,1.84-6.26
	c0-6.43-5.23-11.65-11.65-11.65c-5.21,0-9.63,3.44-11.11,8.16h-40.14V95.47h21.85c1.49,4.72,5.91,8.16,11.11,8.16
	c6.43,0,11.65-5.23,11.65-11.65c0-6.42-5.23-11.65-11.65-11.65c-5.21,0-9.63,3.44-11.11,8.16h-21.85V15.34
	c4.74-5.31,11.43-8.35,18.57-8.35c13.41,0,24.35,10.64,24.89,23.92l-16.51,14.25c-1.83-1.19-4-1.89-6.34-1.89
	c-6.43,0-11.65,5.23-11.65,11.65c0,6.42,5.23,11.65,11.65,11.65c6.42,0,11.65-5.23,11.65-11.65c0-1.55-0.31-3.02-0.86-4.38
	l17.42-15.03c12.91,0.93,23.13,11.71,23.13,24.85c0,1.68-0.23,3.41-0.61,5.16l-13.71,8.21c-1.05,0.63-1.7,1.77-1.7,2.99v23.47
	c-4.72,1.49-8.16,5.91-8.16,11.12c0,6.42,5.23,11.65,11.65,11.65c5.24,0,9.68-3.48,11.14-8.25h14.23
	c9.03,6.55,14.41,17.01,14.41,28.19C212.36,154.22,206.84,164.74,197.75,171.23z M138.43,135.41c0,2.58-2.09,4.67-4.67,4.67
	s-4.67-2.1-4.67-4.67c0-2.58,2.1-4.67,4.67-4.67S138.43,132.84,138.43,135.41z M141.46,91.98c0-2.58,2.09-4.67,4.67-4.67
	s4.67,2.1,4.67,4.67c0,2.58-2.1,4.67-4.67,4.67S141.46,94.55,141.46,91.98z M138.43,54.91c0,2.58-2.09,4.67-4.67,4.67
	s-4.67-2.1-4.67-4.67c0-2.58,2.1-4.67,4.67-4.67S138.43,52.33,138.43,54.91z"/>
</svg>
